{
  "source": "C:\\Users\\Peter\\Desktop\\stuff\\MIUN\\quantitative_research\\video_compression\\videos\\UVG\\Bosphorus_1920x1080_120fps_420_8bit_YUV.y4m",
  "output": "C:\\Users\\Peter\\Desktop\\stuff\\MIUN\\quantitative_research\\video_compression\\compressed_videos\\UVG\\vp9\\8\\Bosphorus_1920x1080_120fps_420_8bit_YUV_vp9.webm",
  "codec": "vp9",
  "ok": "[yuv4mpegpipe @ 000001fdf11352c0] Stream #0: not enough frames to estimate rate; consider increasing probesize\nInput #0, yuv4mpegpipe, from 'C:\\Users\\Peter\\Desktop\\stuff\\MIUN\\quantitative_research\\video_compression\\videos\\UVG\\Bosphorus_1920x1080_120fps_420_8bit_YUV.y4m':\n  Duration: 00:00:05.00, start: 0.000000, bitrate: 2985989 kb/s\n  Stream #0:0: Video: rawvideo (I420 / 0x30323449), yuv420p(progressive), 1920x1080, 120 fps, 120 tbr, 120 tbn\n[out#0/webm @ 000001fdf1139b80] Codec AVOption b:a (set bitrate (in bits/s)) has not been used for any stream. The most likely reason is either wrong type (e.g. a video option with no video streams) or that it is a private option of some decoder which was not actually used for any stream.\nStream mapping:\n  Stream #0:0 -> #0:0 (rawvideo (native) -> vp9 (libvpx-vp9))\nPress [q] to stop, [?] for help\n[libvpx-vp9 @ 000001fdf113cec0] v1.15.2-100-g40561f514\nOutput #0, webm, to 'C:\\Users\\Peter\\Desktop\\stuff\\MIUN\\quantitative_research\\video_compression\\compressed_videos\\UVG\\vp9\\8\\Bosphorus_1920x1080_120fps_420_8bit_YUV_vp9.webm':\n  Metadata:\n    encoder         : Lavf62.3.100\n  Stream #0:0: Video: vp9, yuv420p(tv, progressive), 1920x1080, q=2-31, 8000 kb/s, 120 fps, 1k tbn\n    Metadata:\n      encoder         : Lavc62.11.100 libvpx-vp9\n    Side data:\n      cpb: bitrate max/min/avg: 0/0/0 buffer size: 8000000 vbv_delay: N/A\nframe=    2 fps=0.0 q=48.0 size=       0KiB time=00:00:00.01 bitrate= 230.9kbits/s speed=0.0331x elapsed=0:00:00.50    \nframe=    8 fps=7.8 q=34.0 size=       0KiB time=00:00:00.06 bitrate=  57.7kbits/s speed=0.0647x elapsed=0:00:01.03    \nframe=   14 fps=9.1 q=32.0 size=       0KiB time=00:00:00.11 bitrate=  33.0kbits/s speed=0.0754x elapsed=0:00:01.54    \nframe=   19 fps=9.1 q=33.0 size=       0KiB time=00:00:00.15 bitrate=  24.3kbits/s speed=0.076x elapsed=0:00:02.08    \nframe=   25 fps=9.6 q=35.0 size=       0KiB time=00:00:00.20 bitrate=  19.2kbits/s speed=0.0767x elapsed=0:00:02.60    \nframe=   30 fps=9.5 q=34.0 size=       0KiB time=00:00:00.25 bitrate=  15.4kbits/s speed=0.079x elapsed=0:00:03.16    \nframe=   34 fps=9.2 q=35.0 size=       0KiB time=00:00:00.28 bitrate=  13.6kbits/s speed=0.0763x elapsed=0:00:03.71    \nframe=   40 fps=9.4 q=36.0 size=       0KiB time=00:00:00.33 bitrate=  11.5kbits/s speed=0.0787x elapsed=0:00:04.23    \nframe=   45 fps=9.4 q=32.0 size=       0KiB time=00:00:00.37 bitrate=  10.3kbits/s speed=0.0786x elapsed=0:00:04.77    \nframe=   49 fps=9.2 q=32.0 size=       0KiB time=00:00:00.40 bitrate=   9.4kbits/s speed=0.0769x elapsed=0:00:05.30    \nframe=   55 fps=9.5 q=34.0 size=       0KiB time=00:00:00.45 bitrate=   8.6kbits/s speed=0.0773x elapsed=0:00:05.81    \nframe=   59 fps=9.3 q=35.0 size=       0KiB time=00:00:00.49 bitrate=   7.8kbits/s speed=0.0773x elapsed=0:00:06.35    \nframe=   64 fps=9.3 q=34.0 size=       0KiB time=00:00:00.53 bitrate=   7.2kbits/s speed=0.0776x elapsed=0:00:06.87    \nframe=   70 fps=9.5 q=38.0 size=       0KiB time=00:00:00.58 bitrate=   6.6kbits/s speed=0.0788x elapsed=0:00:07.39    \nframe=   75 fps=9.4 q=33.0 size=       0KiB time=00:00:00.62 bitrate=   6.2kbits/s speed=0.0787x elapsed=0:00:07.94    \nframe=   80 fps=9.4 q=31.0 size=       0KiB time=00:00:00.66 bitrate=   5.8kbits/s speed=0.0785x elapsed=0:00:08.49    \nframe=   86 fps=9.5 q=34.0 size=       0KiB time=00:00:00.71 bitrate=   5.4kbits/s speed=0.0794x elapsed=0:00:09.03    \nframe=   90 fps=9.4 q=33.0 size=       0KiB time=00:00:00.75 bitrate=   5.1kbits/s speed=0.0785x elapsed=0:00:09.55    \nframe=   96 fps=9.5 q=34.0 size=       0KiB time=00:00:00.80 bitrate=   4.8kbits/s speed=0.0795x elapsed=0:00:10.06    \nframe=  101 fps=9.5 q=33.0 size=       0KiB time=00:00:00.84 bitrate=   4.6kbits/s speed=0.0794x elapsed=0:00:10.60    \nframe=  105 fps=9.4 q=33.0 size=       0KiB time=00:00:00.87 bitrate=   4.4kbits/s speed=0.0786x elapsed=0:00:11.13    \nframe=  111 fps=9.5 q=35.0 size=       0KiB time=00:00:00.92 bitrate=   4.2kbits/s speed=0.0793x elapsed=0:00:11.65    \nframe=  116 fps=9.5 q=34.0 size=       0KiB time=00:00:00.96 bitrate=   4.0kbits/s speed=0.0794x elapsed=0:00:12.17    \nframe=  122 fps=9.6 q=35.0 size=       0KiB time=00:00:01.01 bitrate=   3.8kbits/s speed=0.08x elapsed=0:00:12.71    \nframe=  127 fps=9.6 q=33.0 size=       0KiB time=00:00:01.05 bitrate=   3.6kbits/s speed=0.0799x elapsed=0:00:13.24    \nframe=  133 fps=9.7 q=31.0 size=    1024KiB time=00:00:01.10 bitrate=7626.0kbits/s speed=0.0799x elapsed=0:00:13.76    \nframe=  139 fps=9.7 q=33.0 size=    1024KiB time=00:00:01.15 bitrate=7242.0kbits/s speed=0.0809x elapsed=0:00:14.32    \nframe=  143 fps=9.6 q=33.0 size=    1024KiB time=00:00:01.19 bitrate=7039.4kbits/s speed=0.0802x elapsed=0:00:14.85    \nframe=  149 fps=9.7 q=35.0 size=    1024KiB time=00:00:01.24 bitrate=6755.9kbits/s speed=0.0807x elapsed=0:00:15.38    \nframe=  155 fps=9.7 q=38.0 size=    1024KiB time=00:00:01.29 bitrate=6494.4kbits/s speed=0.0811x elapsed=0:00:15.93    \nframe=  159 fps=9.7 q=17.0 size=    1024KiB time=00:00:01.32 bitrate=6331.0kbits/s speed=0.0804x elapsed=0:00:16.46    \nframe=  164 fps=9.7 q=35.0 size=    1024KiB time=00:00:01.36 bitrate=6138.0kbits/s speed=0.0804x elapsed=0:00:16.99    \nframe=  170 fps=9.7 q=37.0 size=    1024KiB time=00:00:01.41 bitrate=5921.4kbits/s speed=0.0808x elapsed=0:00:17.53    \nframe=  175 fps=9.7 q=34.0 size=    1024KiB time=00:00:01.45 bitrate=5752.2kbits/s speed=0.0807x elapsed=0:00:18.06    \nframe=  180 fps=9.7 q=32.0 size=    1024KiB time=00:00:01.50 bitrate=5592.4kbits/s speed=0.0806x elapsed=0:00:18.60    \nframe=  185 fps=9.7 q=34.0 size=    1024KiB time=00:00:01.54 bitrate=5441.3kbits/s speed=0.0807x elapsed=0:00:19.11    \nframe=  189 fps=9.6 q=21.0 size=    1024KiB time=00:00:01.57 bitrate=5326.1kbits/s speed=0.0802x elapsed=0:00:19.63    \nframe=  194 fps=9.6 q=34.0 size=    1024KiB time=00:00:01.61 bitrate=5188.8kbits/s speed=0.0802x elapsed=0:00:20.15    \nframe=  199 fps=9.6 q=34.0 size=    1024KiB time=00:00:01.65 bitrate=5058.5kbits/s speed=0.0802x elapsed=0:00:20.66    \nframe=  204 fps=9.6 q=26.0 size=    1024KiB time=00:00:01.69 bitrate=4958.8kbits/s speed=0.0798x elapsed=0:00:21.18    \nframe=  209 fps=9.6 q=33.0 size=    1024KiB time=00:00:01.74 bitrate=4816.4kbits/s speed=0.0801x elapsed=0:00:21.74    \nframe=  214 fps=9.6 q=33.0 size=    1024KiB time=00:00:01.78 bitrate=4703.9kbits/s speed=0.0801x elapsed=0:00:22.26    \nframe=  218 fps=9.6 q=33.0 size=    1024KiB time=00:00:01.81 bitrate=4617.6kbits/s speed=0.0798x elapsed=0:00:22.77    \nframe=  224 fps=9.6 q=33.0 size=    1024KiB time=00:00:01.86 bitrate=4493.9kbits/s speed=0.0801x elapsed=0:00:23.31    \nframe=  229 fps=9.6 q=33.0 size=    1024KiB time=00:00:01.90 bitrate=4395.8kbits/s speed=0.08x elapsed=0:00:23.84    \nframe=  234 fps=9.6 q=25.0 size=    1024KiB time=00:00:01.95 bitrate=4301.9kbits/s speed=0.08x elapsed=0:00:24.38    \nframe=  239 fps=9.6 q=34.0 size=    1024KiB time=00:00:01.99 bitrate=4211.9kbits/s speed=0.0799x elapsed=0:00:24.91    \nframe=  244 fps=9.6 q=34.0 size=    1024KiB time=00:00:02.03 bitrate=4125.5kbits/s speed=0.08x elapsed=0:00:25.42    \nframe=  250 fps=9.6 q=35.0 size=    1024KiB time=00:00:02.08 bitrate=4026.5kbits/s speed=0.0802x elapsed=0:00:25.97    \nframe=  255 fps=9.6 q=34.0 size=    1024KiB time=00:00:02.12 bitrate=3947.6kbits/s speed=0.0802x elapsed=0:00:26.50    \nframe=  259 fps=9.6 q=31.0 size=    2048KiB time=00:00:02.15 bitrate=7773.2kbits/s speed=0.0799x elapsed=0:00:27.02    \nframe=  265 fps=9.6 q=35.0 size=    2048KiB time=00:00:02.20 bitrate=7597.2kbits/s speed=0.0802x elapsed=0:00:27.55    \nframe=  270 fps=9.6 q=34.0 size=    2048KiB time=00:00:02.25 bitrate=7456.5kbits/s speed=0.0801x elapsed=0:00:28.08    \nframe=  275 fps=9.6 q=33.0 size=    2048KiB time=00:00:02.29 bitrate=7321.0kbits/s speed=0.0801x elapsed=0:00:28.61    \nframe=  279 fps=9.6 q=35.0 size=    2048KiB time=00:00:02.32 bitrate=7216.0kbits/s speed=0.0798x elapsed=0:00:29.14    \nframe=  284 fps=9.6 q=34.0 size=    2048KiB time=00:00:02.36 bitrate=7089.0kbits/s speed=0.0798x elapsed=0:00:29.67    \nframe=  290 fps=9.6 q=35.0 size=    2048KiB time=00:00:02.41 bitrate=6942.3kbits/s speed=0.08x elapsed=0:00:30.19    \nframe=  295 fps=9.6 q=34.0 size=    2048KiB time=00:00:02.45 bitrate=6824.6kbits/s speed=0.08x elapsed=0:00:30.74    \nframe=  300 fps=9.6 q=35.0 size=    2048KiB time=00:00:02.50 bitrate=6710.9kbits/s speed=0.08x elapsed=0:00:31.26    \nframe=  305 fps=9.6 q=34.0 size=    2048KiB time=00:00:02.54 bitrate=6600.9kbits/s speed=0.0799x elapsed=0:00:31.81    \nframe=  311 fps=9.6 q=35.0 size=    2048KiB time=00:00:02.59 bitrate=6473.5kbits/s speed=0.0801x elapsed=0:00:32.34    \nframe=  316 fps=9.6 q=34.0 size=    2048KiB time=00:00:02.63 bitrate=6371.1kbits/s speed=0.0801x elapsed=0:00:32.87    \nframe=  321 fps=9.6 q=35.0 size=    2048KiB time=00:00:02.67 bitrate=6271.9kbits/s speed=0.08x elapsed=0:00:33.42    \nframe=  326 fps=9.6 q=34.0 size=    2048KiB time=00:00:02.71 bitrate=6175.7kbits/s speed=0.08x elapsed=0:00:33.93    \nframe=  331 fps=9.6 q=33.0 size=    2048KiB time=00:00:02.75 bitrate=6082.4kbits/s speed=0.08x elapsed=0:00:34.47    \nframe=  336 fps=9.6 q=31.0 size=    2048KiB time=00:00:02.80 bitrate=5991.9kbits/s speed=0.08x elapsed=0:00:35.00    \nframe=  341 fps=9.6 q=25.0 size=    2048KiB time=00:00:02.84 bitrate=5904.0kbits/s speed=0.08x elapsed=0:00:35.53    \nframe=  346 fps=9.6 q=35.0 size=    2048KiB time=00:00:02.88 bitrate=5818.7kbits/s speed=0.08x elapsed=0:00:36.06    \nframe=  351 fps=9.6 q=34.0 size=    2048KiB time=00:00:02.92 bitrate=5735.8kbits/s speed=0.08x elapsed=0:00:36.58    \nframe=  356 fps=9.6 q=35.0 size=    2048KiB time=00:00:02.96 bitrate=5655.2kbits/s speed=0.0799x elapsed=0:00:37.10    \nframe=  361 fps=9.6 q=34.0 size=    2048KiB time=00:00:03.00 bitrate=5576.9kbits/s speed=0.0799x elapsed=0:00:37.64    \nframe=  367 fps=9.6 q=34.0 size=    2048KiB time=00:00:03.05 bitrate=5485.7kbits/s speed=0.0801x elapsed=0:00:38.19    \nframe=  372 fps=9.6 q=34.0 size=    2048KiB time=00:00:03.10 bitrate=5412.0kbits/s speed=0.08x elapsed=0:00:38.72    \nframe=  376 fps=9.6 q=23.0 size=    2048KiB time=00:00:03.13 bitrate=5354.4kbits/s speed=0.0798x elapsed=0:00:39.24    \nframe=  382 fps=9.6 q=33.0 size=    2048KiB time=00:00:03.18 bitrate=5270.3kbits/s speed=0.08x elapsed=0:00:39.77    \nframe=  387 fps=9.6 q=31.0 size=    3072KiB time=00:00:03.22 bitrate=7803.4kbits/s speed=0.08x elapsed=0:00:40.30    \nframe=  392 fps=9.6 q=25.0 size=    3072KiB time=00:00:03.26 bitrate=7703.8kbits/s speed=0.08x elapsed=0:00:40.82    \nframe=  397 fps=9.6 q=35.0 size=    3072KiB time=00:00:03.30 bitrate=7606.8kbits/s speed=0.08x elapsed=0:00:41.33    \nframe=  402 fps=9.6 q=31.0 size=    3072KiB time=00:00:03.35 bitrate=7512.2kbits/s speed=0.08x elapsed=0:00:41.85    \nframe=  407 fps=9.6 q=32.0 size=    3072KiB time=00:00:03.39 bitrate=7419.9kbits/s speed=0.0801x elapsed=0:00:42.36    \nframe=  412 fps=9.6 q=33.0 size=    3072KiB time=00:00:03.43 bitrate=7329.9kbits/s speed=0.0801x elapsed=0:00:42.88    \nframe=  417 fps=9.6 q=32.0 size=    3072KiB time=00:00:03.47 bitrate=7242.0kbits/s speed=0.08x elapsed=0:00:43.43    \nframe=  422 fps=9.6 q=32.0 size=    3072KiB time=00:00:03.51 bitrate=7156.2kbits/s speed=0.08x elapsed=0:00:43.96    \nframe=  428 fps=9.6 q=33.0 size=    3072KiB time=00:00:03.56 bitrate=7055.8kbits/s speed=0.0802x elapsed=0:00:44.49    \nframe=  433 fps=9.6 q=33.0 size=    3072KiB time=00:00:03.60 bitrate=6974.4kbits/s speed=0.0802x elapsed=0:00:45.01    \nframe=  437 fps=9.6 q=32.0 size=    3072KiB time=00:00:03.64 bitrate=6910.5kbits/s speed=0.08x elapsed=0:00:45.53    \nframe=  442 fps=9.6 q=32.0 size=    3072KiB time=00:00:03.68 bitrate=6832.4kbits/s speed=0.08x elapsed=0:00:46.05    \nframe=  448 fps=9.6 q=33.0 size=    3072KiB time=00:00:03.73 bitrate=6740.8kbits/s speed=0.0802x elapsed=0:00:46.57    \nframe=  452 fps=9.6 q=34.0 size=    3072KiB time=00:00:03.76 bitrate=6681.2kbits/s speed=0.0799x elapsed=0:00:47.11    \nframe=  458 fps=9.6 q=33.0 size=    3072KiB time=00:00:03.81 bitrate=6593.7kbits/s speed=0.0801x elapsed=0:00:47.63    \nframe=  464 fps=9.6 q=34.0 size=    3072KiB time=00:00:03.86 bitrate=6508.4kbits/s speed=0.0802x elapsed=0:00:48.18    \nframe=  469 fps=9.6 q=32.0 size=    3072KiB time=00:00:03.90 bitrate=6439.0kbits/s speed=0.0802x elapsed=0:00:48.73    \nframe=  475 fps=9.6 q=34.0 size=    3072KiB time=00:00:03.95 bitrate=6357.7kbits/s speed=0.0803x elapsed=0:00:49.29    \nframe=  480 fps=9.6 q=33.0 size=    3072KiB time=00:00:04.00 bitrate=6291.5kbits/s speed=0.0803x elapsed=0:00:49.81    \nframe=  485 fps=9.6 q=34.0 size=    3072KiB time=00:00:04.04 bitrate=6226.6kbits/s speed=0.0803x elapsed=0:00:50.35    \nframe=  490 fps=9.6 q=30.0 size=    3072KiB time=00:00:04.08 bitrate=6163.1kbits/s speed=0.0802x elapsed=0:00:50.90    \nframe=  495 fps=9.6 q=34.0 size=    3072KiB time=00:00:04.12 bitrate=6100.8kbits/s speed=0.0802x elapsed=0:00:51.43    \nframe=  499 fps=9.6 q=35.0 size=    3072KiB time=00:00:04.15 bitrate=6051.9kbits/s speed=0.08x elapsed=0:00:51.96    \nframe=  505 fps=9.6 q=34.0 size=    3072KiB time=00:00:04.20 bitrate=5980.0kbits/s speed=0.0802x elapsed=0:00:52.47    \nframe=  510 fps=9.6 q=35.0 size=    3072KiB time=00:00:04.25 bitrate=5921.4kbits/s speed=0.0802x elapsed=0:00:52.99    \nframe=  515 fps=9.6 q=30.0 size=    4352KiB time=00:00:04.29 bitrate=8307.2kbits/s speed=0.0802x elapsed=0:00:53.51    \nframe=  521 fps=9.6 q=33.0 size=    4352KiB time=00:00:04.34 bitrate=8211.5kbits/s speed=0.0803x elapsed=0:00:54.05    \nframe=  527 fps=9.7 q=34.0 size=    4352KiB time=00:00:04.39 bitrate=8118.0kbits/s speed=0.0805x elapsed=0:00:54.58    \nframe=  532 fps=9.7 q=34.0 size=    4352KiB time=00:00:04.43 bitrate=8041.7kbits/s speed=0.0804x elapsed=0:00:55.11    \nframe=  537 fps=9.6 q=32.0 size=    4352KiB time=00:00:04.47 bitrate=7966.8kbits/s speed=0.0804x elapsed=0:00:55.66    \nframe=  541 fps=9.6 q=34.0 size=    4352KiB time=00:00:04.50 bitrate=7907.9kbits/s speed=0.0802x elapsed=0:00:56.19    \nframe=  547 fps=9.6 q=35.0 size=    4352KiB time=00:00:04.55 bitrate=7821.2kbits/s speed=0.0804x elapsed=0:00:56.71    \nframe=  552 fps=9.6 q=35.0 size=    4352KiB time=00:00:04.59 bitrate=7764.4kbits/s speed=0.0802x elapsed=0:00:57.22    \nframe=  556 fps=9.6 q=25.0 size=    4352KiB time=00:00:04.63 bitrate=7694.6kbits/s speed=0.0802x elapsed=0:00:57.76    \nframe=  561 fps=9.6 q=35.0 size=    4352KiB time=00:00:04.67 bitrate=7626.0kbits/s speed=0.0802x elapsed=0:00:58.28    \nframe=  566 fps=9.6 q=34.0 size=    4352KiB time=00:00:04.71 bitrate=7558.6kbits/s speed=0.0802x elapsed=0:00:58.82    \nframe=  571 fps=9.6 q=36.0 size=    4352KiB time=00:00:04.75 bitrate=7492.5kbits/s speed=0.0802x elapsed=0:00:59.35    \nframe=  576 fps=9.6 q=35.0 size=    4352KiB time=00:00:04.80 bitrate=7427.4kbits/s speed=0.0801x elapsed=0:00:59.89    \nframe=  576 fps=9.5 q=35.0 size=    4352KiB time=00:00:04.80 bitrate=7427.4kbits/s speed=0.0794x elapsed=0:01:00.42    \nframe=  576 fps=9.5 q=35.0 size=    4352KiB time=00:00:04.80 bitrate=7427.4kbits/s speed=0.0788x elapsed=0:01:00.94    \nframe=  576 fps=9.4 q=35.0 size=    4352KiB time=00:00:04.80 bitrate=7427.4kbits/s speed=0.0781x elapsed=0:01:01.46    \nframe=  576 fps=9.3 q=35.0 size=    4352KiB time=00:00:04.80 bitrate=7427.4kbits/s speed=0.0774x elapsed=0:01:01.98    \n[out#0/webm @ 000001fdf1139b80] video:5263KiB audio:0KiB subtitle:0KiB other streams:0KiB global headers:0KiB muxing overhead: 0.090764%\nframe=  600 fps=9.6 q=32.0 Lsize=    5268KiB time=00:00:05.00 bitrate=8631.5kbits/s speed=0.0802x elapsed=0:01:02.31    \n",
  "seconds": 62.44530463218689,
  "probe_out": {}
}